<?xml version="1.0" standalone="no"?><!DOCTYPE svg PUBLIC "-//W3C//DTD SVG 1.1//EN" "http://www.w3.org/Graphics/SVG/1.1/DTD/svg11.dtd"><svg t="1578825043182" class="icon" viewBox="0 0 1024 1024" version="1.1" xmlns="http://www.w3.org/2000/svg" p-id="8490" width="32" height="32" xmlns:xlink="http://www.w3.org/1999/xlink"><defs><style type="text/css"></style></defs><path d="M170.666667 97.52381v828.95238h682.666666V97.52381H170.666667zM121.904762 0h780.190476a48.761905 48.761905 0 0 1 48.761905 48.761905v926.47619a48.761905 48.761905 0 0 1-48.761905 48.761905H121.904762a48.761905 48.761905 0 0 1-48.761905-48.761905V48.761905a48.761905 48.761905 0 0 1 48.761905-48.761905z m121.904762 316.952381h390.095238v97.523809H243.809524v-97.523809z m0-146.285714h243.809524v97.523809H243.809524V170.666667z m0 316.952381h170.666666v97.523809H243.809524v-97.523809z m390.095238 390.095238a170.666667 170.666667 0 1 1 0-341.333334 170.666667 170.666667 0 0 1 0 341.333334z m0-97.52381a73.142857 73.142857 0 1 0 0-146.285714 73.142857 73.142857 0 0 0 0 146.285714z" p-id="8491" fill="#ffffff"></path></svg>