<?xml version="1.0" standalone="no"?><!DOCTYPE svg PUBLIC "-//W3C//DTD SVG 1.1//EN" "http://www.w3.org/Graphics/SVG/1.1/DTD/svg11.dtd"><svg t="1578827013261" class="icon" viewBox="0 0 1024 1024" version="1.1" xmlns="http://www.w3.org/2000/svg" p-id="10047" width="32" height="32" xmlns:xlink="http://www.w3.org/1999/xlink"><defs><style type="text/css"></style></defs><path d="M277.333333 320H170.666667v128h106.666666v-42.666667h85.333334v42.666667h298.666666v-42.666667h85.333334v42.666667h106.666666v-128H277.333333z m0-85.333333V149.333333a42.666667 42.666667 0 0 1 42.666667-42.666666h384a42.666667 42.666667 0 0 1 42.666667 42.666666v85.333334h149.333333a42.666667 42.666667 0 0 1 42.666667 42.666666v597.333334a42.666667 42.666667 0 0 1-42.666667 42.666666H128a42.666667 42.666667 0 0 1-42.666667-42.666666V277.333333a42.666667 42.666667 0 0 1 42.666667-42.666666h149.333333z m85.333334 0h298.666666V192H362.666667v42.666667z m298.666666 298.666666H362.666667v42.666667h-85.333334v-42.666667H170.666667v298.666667h682.666666V533.333333h-106.666666v42.666667h-85.333334v-42.666667z" p-id="10048" fill="#ffffff"></path></svg>