<?xml version="1.0" standalone="no"?><!DOCTYPE svg PUBLIC "-//W3C//DTD SVG 1.1//EN" "http://www.w3.org/Graphics/SVG/1.1/DTD/svg11.dtd"><svg t="1578826923393" class="icon" viewBox="0 0 1024 1024" version="1.1" xmlns="http://www.w3.org/2000/svg" p-id="9895" xmlns:xlink="http://www.w3.org/1999/xlink" width="32" height="32"><defs><style type="text/css"></style></defs><path d="M320 192h384v512H320V192z m85.333333 85.333333v341.333334h213.333334V277.333333H405.333333z m-85.333333 469.333334h384v85.333333H320v-85.333333zM170.666667 64h682.666666a42.666667 42.666667 0 0 1 42.666667 42.666667v810.666666a42.666667 42.666667 0 0 1-42.666667 42.666667H170.666667a42.666667 42.666667 0 0 1-42.666667-42.666667V106.666667a42.666667 42.666667 0 0 1 42.666667-42.666667z m42.666666 85.333333v725.333334h597.333334V149.333333H213.333333z" p-id="9896" fill="#ffffff"></path></svg>