<svg viewBox="0 0 1024 1024" version="1.1" xmlns="http://www.w3.org/2000/svg" p-id="15788" width="64" height="64" xmlns:xlink="http://www.w3.org/1999/xlink">
    <path d="M795.434667 846.848l-104.021334-103.978667a278.272 278.272 0 0 1-84.565333 46.293334 294.613333 294.613333 0 0 1-94.848 15.402666c-32.768 0-64.384-5.12-94.848-15.402666a278.272 278.272 0 0 1-84.565333-46.293334l-104.021334 103.978667c39.637333 33.536 83.626667 59.264 132.010667 77.141333 48.384 17.92 98.858667 26.88 151.424 26.88a426.496 426.496 0 0 0 153.173333-27.434666 448.042667 448.042667 0 0 0 130.261334-76.586667z m51.413333-51.413333a438.485333 438.485333 0 0 0 77.141333-132.010667c17.92-48.384 26.88-98.858667 26.88-151.424a426.496 426.496 0 0 0-27.434666-153.173333 448.042667 448.042667 0 0 0-76.586667-130.261334l-103.978667 104.021334c19.797333 25.130667 35.029333 52.736 45.696 82.858666 10.666667 30.08 16 62.293333 16 96.554667 0 34.304-5.333333 66.474667-16 96.554667a289.024 289.024 0 0 1-45.696 82.858666l103.978667 104.021334zM795.434667 177.152a438.485333 438.485333 0 0 0-132.010667-77.141333A432.810667 432.810667 0 0 0 512 73.130667a426.496 426.496 0 0 0-153.173333 27.434666 448.042667 448.042667 0 0 0-130.261334 76.586667l104.021334 103.978667a278.272 278.272 0 0 1 84.565333-46.293334 298.154667 298.154667 0 0 1 96-15.402666 283.52 283.52 0 0 1 178.261333 61.696l104.021334-103.978667zM177.152 228.565333a438.485333 438.485333 0 0 0-77.141333 132.010667A432.810667 432.810667 0 0 0 73.130667 512c0 54.101333 9.173333 105.130667 27.434666 153.173333a448.042667 448.042667 0 0 0 76.586667 130.261334l103.978667-104.021334a278.272 278.272 0 0 1-46.293334-84.565333 298.154667 298.154667 0 0 1-15.402666-96 283.52 283.52 0 0 1 61.696-178.261333L177.152 228.565333z m476.586667 451.413334c9.130667-8.362667 17.92-17.109333 26.282666-26.282667 15.957333-19.029333 28.586667-40.533333 37.674667-64.554667A214.869333 214.869333 0 0 0 731.434667 512a217.258667 217.258667 0 0 0-77.696-168.021333 213.717333 213.717333 0 0 0-66.304-38.272A221.397333 221.397333 0 0 0 512 292.565333a217.258667 217.258667 0 0 0-168.021333 77.696c-15.957333 19.072-28.586667 40.576-37.674667 64.597334A214.869333 214.869333 0 0 0 292.565333 512a217.258667 217.258667 0 0 0 77.696 168.021333c19.072 15.957333 40.576 28.586667 64.597334 37.674667a214.869333 214.869333 0 0 0 77.141333 13.738667c27.434667 0 53.162667-4.565333 77.141333-13.738667a222.976 222.976 0 0 0 64.554667-37.717333zM512 1024c-144.768-3.84-265.344-53.888-361.728-150.272C53.888 777.301333 3.84 656.768 0 512c3.84-144.768 53.888-265.344 150.272-361.728C246.698667 53.888 367.232 3.84 512 0c144.768 3.84 265.344 53.888 361.728 150.272C970.112 246.698667 1020.16 367.232 1024 512c-3.84 144.768-53.888 265.344-150.272 361.728C777.301333 970.112 656.768 1020.16 512 1024z" fill="#666666" p-id="15789"></path>
</svg>