<svg t="1585629681561" class="icon" viewBox="0 0 1024 1024" version="1.1" xmlns="http://www.w3.org/2000/svg" p-id="2449" width="32" height="32" xmlns:xlink="http://www.w3.org/1999/xlink">
    <path d="M172.6 569.5c-68.9-68.9-98.1-167-78.3-262.5a60.21 60.21 0 0 1 41.9-45.6c21.5-6.4 44.6-0.6 60.4 15.3l72.2 72.2c24.9 24.9 65.5 24.9 90.4 0 24.9-24.9 24.9-65.5 0-90.4L287 186.3c-15.8-15.8-21.7-39-15.3-60.4 6.4-21.4 23.9-37.4 45.6-41.9C413 64 511.1 93.2 580 162.1c38.9 38.9 65.7 87.8 77.6 141.3 11.3 51.3 8.5 104.7-8.3 154.4l214 214c49.9 49.9 49.9 131.1 0 181-49.9 49.9-131.1 49.9-181 0l-214-214c-49.7 16.7-103.1 19.6-154.4 8.3-53.5-11.9-102.3-38.7-141.3-77.6z m-16.8-243.3c-12.9 72.3 10 145.9 62.1 198 30.3 30.3 68.3 51.1 109.9 60.3 40.5 9 82.7 6.5 121.8-7 21.7-7.5 46.3-1.8 62.6 14.5l215.4 215.4c24.9 24.9 65.5 24.9 90.4 0 24.9-24.9 24.9-65.5 0-90.4L602.6 501.7c-16.3-16.3-22-40.9-14.5-62.6 13.5-39.2 15.9-81.3 7-121.8-9.2-41.6-30-79.6-60.3-109.9-52.1-52.1-125.7-75.1-198-62.1l67.8 67.8c49.9 49.9 49.9 131.1 0 180.9-49.9 49.9-131.1 49.9-181 0l-67.8-67.8z" p-id="2450" fill="#ffffff"></path>
</svg>