<svg t="1578825005740" class="icon" viewBox="0 0 1024 1024" version="1.1" xmlns="http://www.w3.org/2000/svg" p-id="8307" width="32" height="32" xmlns:xlink="http://www.w3.org/1999/xlink">
    <path d="M716.8 144.128h204.8a51.2 51.2 0 0 1 51.2 51.2v768a51.2 51.2 0 0 1-51.2 51.2H102.4a51.2 51.2 0 0 1-51.2-51.2V147.456A51.2 51.2 0 0 1 93.7728 97.024l563.2-96.2816A51.2 51.2 0 0 1 716.8 51.2v92.928z m0 102.4v665.6h153.6v-665.6h-153.6z m-563.2-51.2v716.8h460.8V118.3744L153.6 195.3024zM435.2 614.4a76.8 76.8 0 1 0 0-153.6 76.8 76.8 0 0 0 0 153.6z" p-id="8308" fill="#ffffff"></path>
</svg>