<?xml version="1.0" standalone="no"?><!DOCTYPE svg PUBLIC "-//W3C//DTD SVG 1.1//EN" "http://www.w3.org/Graphics/SVG/1.1/DTD/svg11.dtd"><svg t="1578825089930" class="icon" viewBox="0 0 1024 1024" version="1.1" xmlns="http://www.w3.org/2000/svg" p-id="8677" width="32" height="32" xmlns:xlink="http://www.w3.org/1999/xlink"><defs><style type="text/css"></style></defs><path d="M341.333333 597.333333v-170.666666H170.666667v-85.333334h170.666666V170.666667h85.333334v170.666666h170.666666V170.666667h85.333334v170.666666h170.666666v85.333334h-170.666666v170.666666h170.666666v85.333334h-170.666666v170.666666h-85.333334v-170.666666h-170.666666v170.666666h-85.333334v-170.666666H170.666667v-85.333334h170.666666z m85.333334 0h170.666666v-170.666666h-170.666666v170.666666zM124.117333 85.333333h775.765334C921.301333 85.333333 938.666667 102.698667 938.666667 124.117333v775.765334A38.784 38.784 0 0 1 899.882667 938.666667H124.117333A38.784 38.784 0 0 1 85.333333 899.882667V124.117333C85.333333 102.698667 102.698667 85.333333 124.117333 85.333333zM170.666667 170.666667v682.666666h682.666666V170.666667H170.666667z" p-id="8678" fill="#ffffff"></path></svg>