<svg t="1578825212333" class="icon" viewBox="0 0 1024 1024" version="1.1" xmlns="http://www.w3.org/2000/svg" p-id="8861" width="32" height="32" xmlns:xlink="http://www.w3.org/1999/xlink">
    <path d="M512 141.184L190.848 326.592v370.816L512 882.816l321.152-185.408V326.592L512 141.184zM533.312 55.04l363.84 210.048c13.184 7.616 21.312 21.76 21.312 36.928v420.096a42.688 42.688 0 0 1-21.312 36.928l-363.84 210.048a42.688 42.688 0 0 1-42.624 0l-363.84-210.048a42.688 42.688 0 0 1-21.312-36.928V301.952c0-15.232 8.128-29.312 21.312-36.928L490.688 54.976c13.184-7.616 29.44-7.616 42.624 0zM512 618.688a106.688 106.688 0 1 0 0-213.376 106.688 106.688 0 0 0 0 213.376zM512 704a192 192 0 1 1 0-384 192 192 0 0 1 0 384z" p-id="8862" fill="#ffffff"></path>
</svg>