<svg t="1598679264059" class="icon" viewBox="0 0 1024 1024" version="1.1" xmlns="http://www.w3.org/2000/svg" p-id="5771" xmlns:xlink="http://www.w3.org/1999/xlink" width="64" height="64">
    <path d="M460.373333 531.2l-337.066666-160.426667c-31.146667-12.373333-46.933333-47.36-34.56-78.933333 6.4-15.786667 18.773333-28.586667 34.986666-34.986667l337.066667-160.426666c32.426667-14.933333 69.973333-14.933333 102.826667 0l337.066666 160.426666c31.573333 11.946667 46.933333 47.36 34.986667 78.933334-6.4 15.786667-18.773333 28.586667-34.986667 34.986666l-337.066666 160.426667c-32.853333 14.933333-70.4 14.933333-103.253334 0z" p-id="5772"></path>
    <path d="M512 745.386667c-24.32 0-48.64-5.546667-70.826667-16.64l-330.666666-164.266667c-23.466667-8.96-35.413333-35.413333-26.026667-59.306667 8.96-23.466667 35.413333-35.413333 59.306667-26.026666 2.56 0.853333 5.12 2.133333 7.68 3.84l330.24 164.266666c19.2 9.386667 41.813333 9.386667 61.013333 0l330.666667-164.266666c21.333333-13.226667 49.493333-6.4 62.72 14.933333 13.226667 21.333333 6.4 49.493333-14.933334 62.72-2.56 1.28-4.693333 2.56-7.68 3.84l-331.093333 164.266667c-21.76 11.093333-46.08 16.64-70.4 16.64z" p-id="5773"></path>
    <path d="M512 938.666667c-24.32 0-48.64-5.546667-70.826667-16.64l-330.666666-164.266667c-23.466667-8.96-35.413333-35.413333-26.026667-59.306667s35.413333-35.413333 59.306667-26.026666c2.56 0.853333 5.12 2.133333 7.68 3.84l330.24 164.266666c19.2 9.386667 41.813333 9.386667 61.013333 0l330.666667-164.266666c21.333333-13.226667 49.493333-6.4 62.72 14.933333 13.226667 21.333333 6.4 49.493333-14.933334 62.72-2.56 1.28-4.693333 2.56-7.68 3.84l-331.093333 164.266667c-21.76 11.093333-46.08 16.64-70.4 16.64z" p-id="5774"></path>
</svg>