<svg t="1578825407111" class="icon" viewBox="0 0 1024 1024" version="1.1" xmlns="http://www.w3.org/2000/svg" p-id="9045" width="32" height="32" xmlns:xlink="http://www.w3.org/1999/xlink">
    <path d="M810.666667 320h-170.666667V149.333333H213.333333v725.333334h597.333334V320zM692.693333 64L896 265.6V917.333333a42.666667 42.666667 0 0 1-42.666667 42.666667H170.666667a42.666667 42.666667 0 0 1-42.666667-42.666667V106.666667a42.666667 42.666667 0 0 1 42.666667-42.666667h522.026666z" p-id="9046" fill="#ffffff"></path>
    <path d="M480.32 685.290667h-108.586667v-55.402667h108.586667v-37.44l-9.173333-7.616h-99.413334v-52.48h77.802667L362.666667 411.52 414.485333 384l97.941334 142.08L610.368 384 661.333333 411.52l-85.674666 120.832h77.824v52.48H554.026667l-9.173334 7.616v37.44h108.629334v55.402667H544.853333V768h-64.533333z" p-id="9047" fill="#ffffff"></path>
</svg>